<?xml version="1.0" standalone="no"?>
<!DOCTYPE svg PUBLIC "-//W3C//DTD SVG 20010904//EN"
 "http://www.w3.org/TR/2001/REC-SVG-20010904/DTD/svg10.dtd">
<svg version="1.0" xmlns="http://www.w3.org/2000/svg"
 width="3200.000000pt" height="3200.000000pt" viewBox="0 0 3200.000000 3200.000000"
 preserveAspectRatio="xMidYMid meet">
<metadata>
Created by potrace 1.14, written by Peter Selinger 2001-2017
</metadata>
<g transform="translate(0.000000,3200.000000) scale(0.100000,-0.100000)"
fill="#000000" stroke="none">
<path d="M17610 20790 c-441 -42 -815 -144 -1185 -324 -250 -121 -495 -277
-677 -431 -43 -36 -81 -65 -86 -65 -4 0 -30 19 -57 42 -909 758 -2172 981
-3294 581 -152 -54 -438 -191 -576 -276 -231 -141 -418 -290 -615 -487 -274
-274 -456 -530 -630 -885 -118 -241 -172 -388 -240 -646 -84 -325 -116 -608
-107 -948 8 -298 37 -495 114 -779 19 -73 33 -135 30 -138 -3 -4 -1150 -2
-2549 2 l-2543 9 -5 1910 c-5 1848 -6 1911 -24 1948 -10 21 -33 49 -50 62 -74
56 -61 55 -647 55 -377 0 -553 -3 -580 -11 -50 -16 -105 -61 -132 -112 l-22
-42 -3 -4170 c-2 -2984 1 -4183 8 -4215 16 -65 53 -113 113 -146 l52 -29 560
0 560 0 52 29 c29 16 64 46 80 69 l28 40 3 1890 2 1890 2903 -4 2902 -4 58 23
c85 35 165 114 208 204 32 69 34 78 34 183 -1 109 -1 111 -49 225 -251 594
-317 1194 -196 1776 90 433 315 858 628 1186 683 714 1688 942 2633 598 133
-48 375 -170 506 -255 167 -109 286 -207 452 -372 110 -110 158 -150 205 -173
112 -55 261 -57 374 -5 41 19 88 59 200 173 324 328 666 545 1063 676 304 101
518 132 852 123 237 -5 385 -28 603 -91 793 -231 1424 -863 1674 -1678 40
-129 73 -282 105 -482 19 -120 57 -198 129 -263 128 -116 321 -154 478 -94 76
29 159 105 195 179 26 53 28 66 27 172 -1 241 -103 666 -243 1013 -44 110
-170 360 -237 470 -157 257 -287 421 -518 652 -525 524 -1149 829 -1906 930
-138 19 -527 27 -660 15z"/>
<path d="M2116 19655 c-47 -17 -91 -57 -119 -110 l-22 -40 0 -3455 0 -3455 22
-42 c28 -52 83 -98 137 -112 29 -9 199 -11 586 -9 l545 3 46 27 c54 32 94 86
108 148 15 66 15 6821 0 6891 -14 65 -83 141 -144 158 -64 17 -1109 14 -1159
-4z"/>
<path d="M336 18825 c-57 -20 -114 -80 -131 -139 -13 -43 -15 -388 -15 -2623
0 -1938 3 -2586 12 -2621 8 -33 25 -60 58 -93 71 -71 70 -71 695 -67 535 3
540 3 581 25 51 27 90 72 104 121 8 26 10 817 8 2654 l-3 2616 -30 44 c-20 28
-49 52 -84 71 l-55 27 -550 0 c-443 -1 -559 -4 -590 -15z"/>
</g>
</svg>
